#!OML:ASF G:\JayActor3\Patient Classification 1\Patient 1\Session 2\male.ASF
:FULLY-SPECIFIED
:DEGREES
3386
root -27.9267 16.8295 -5.659 4169.52 -87.0358 -2729.93
lowerback -1.45711 -0.959707 -3.5874
upperback 3.65283 -1.17603 -0.42024
thorax 4.65505 -0.72633 1.50797
lowerneck -9.5517 -0.323136 -0.324537
upperneck 3.9569 -0.709888 4.38824
head 2.97999 -0.201827 1.45192
rclavicle -3.42904e-015 9.54166e-015
rhumerus -31.7407 -8.54747 -85.1428
rradius 27.9786
rwrist -4.35815
rhand -21.7022 5.4166
rfingers 7.12502
rthumb 4.6963 -24.5113
lclavicle -3.42904e-015 9.54166e-015
lhumerus -16.7938 -5.15527 92.8511
lradius 32.725
lwrist 11.4514
lhand -19.009 16.4853
lfingers 7.12502
lthumb 7.29651 46.3395
rfemur -31.5683 9.43161 14.6379
rtibia 27.3766
rfoot -15.2561 -2.68511
rtoes 8.60826
lfemur 12.6935 8.6725 -26.2923
ltibia -1.11319e-014
lfoot -7.43645 4.27215
ltoes 1.73422
3387
root -27.9992 16.8246 -5.66984 4173.6 -87.2541 -2733.96
lowerback -1.52327 -0.970249 -3.60464
upperback 3.64256 -1.1858 -0.428428
thorax 4.68282 -0.731624 1.50753
lowerneck -9.54481 -0.36452 -0.37254
upperneck 3.92906 -0.762116 4.44439
head 2.97167 -0.227044 1.4759
rclavicle 1.11816e-016 -1.13307e-014
rhumerus -31.8017 -8.65233 -85.0315
rradius 27.8166
rwrist -4.21795
rhand -21.6679 5.39088
rfingers 7.12502
rthumb 4.72947 -24.5363
lclavicle 1.11816e-016 -1.13307e-014
lhumerus -16.8947 -5.02 93.0107
lradius 32.3558
lwrist 11.3007
lhand -19.0344 16.4806
lfingers 7.12502
lthumb 7.27191 46.3356
rfemur -31.4822 9.41462 14.5169
rtibia 27.1574
rfoot -15.2035 -2.61875
rtoes 8.80809
lfemur 12.9078 8.47022 -26.2895
ltibia -1.90833e-014
lfoot -7.53214 4.20072
ltoes 1.32999
3388
root -28.0722 16.8192 -5.68185 4178.38 -87.4581 -2738.69
lowerback -1.58057 -0.979905 -3.62561
upperback 3.62934 -1.19466 -0.436275
thorax 4.70251 -0.736452 1.50977
lowerneck -9.5299 -0.408595 -0.42578
upperneck 3.89455 -0.817224 4.50458
head 2.9598 -0.253827 1.5019
rclavicle -5.69021e-015 -2.18663e-015
rhumerus -31.8654 -8.77197 -84.912
rradius 27.6351
rwrist -4.06043
rhand -21.6265 5.39043
rfingers 7.12502
rthumb 4.76944 -24.5359
lclavicle -5.69021e-015 -2.18663e-015
lhumerus -17.0077 -4.84512 93.1568
lradius 31.946
lwrist 11.1133
lhand -19.0475 16.4776
lfingers 7.12502
lthumb 7.25929 46.3331
rfemur -31.365 9.43845 14.3917
rtibia 27.0216
rfoot -15.1197 -2.59498
rtoes 9.09378
lfemur 13.125 8.26502 -26.2803
ltibia -3.81667e-014
lfoot -7.6182 4.1339
ltoes 0.895633
3389
root -28.1452 16.8127 -5.69497 4183.96 -87.6398 -2744.23
lowerback -1.62857 -0.987019 -3.65086
upperback 3.61397 -1.20037 -0.445027
thorax 4.71458 -0.73972 1.51385
lowerneck -9.50891 -0.456764 -0.483567
upperneck 3.85432 -0.87716 4.5678
head 2.94512 -0.283134 1.52939
rclavicle 1.38528e-014 -2.98177e-015
rhumerus -31.9303 -8.91681 -84.7824
rradius 27.4287
rwrist -3.87751
rhand -21.5933 5.42017
rfingers 7.12502
rthumb 4.80148 -24.5054
lclavicle 1.38528e-014 -2.98177e-015
lhumerus -17.1323 -4.63266 93.2866
lradius 31.5004
lwrist 10.8951
lhand -19.052 16.4496
lfingers 7.12502
lthumb 7.255 46.3053
rfemur -31.2214 9.52003 14.253
rtibia 26.9657
rfoot -15.0213 -2.60689
rtoes 9.52203
lfemur 13.3461 8.05986 -26.2678
ltibia -2.70347e-014
lfoot -7.69685 4.07184
ltoes 0.446183
3390
root -28.2189 16.8052 -5.709 4190.54 -87.7913 -2750.77
lowerback -1.67385 -0.993738 -3.68374
upperback 3.60056 -1.20531 -0.45623
thorax 4.72726 -0.742909 1.51971
lowerneck -9.48676 -0.50677 -0.543611
upperneck 3.80927 -0.93917 4.6323
head 2.92878 -0.313564 1.55757
rclavicle -4.02539e-015 8.64713e-015
rhumerus -31.9855 -9.07536 -84.6477
rradius 27.1972
rwrist -3.67421
rhand -21.5582 5.44192
rfingers 7.12502
rthumb 4.83542 -24.4829
lclavicle -4.02539e-015 8.64713e-015
lhumerus -17.265 -4.37549 93.3955
lradius 31.0216
lwrist 10.6391
lhand -19.0317 16.4234
lfingers 7.12502
lthumb 7.27457 46.2783
rfemur -31.0461 9.64405 14.1027
rtibia 26.9846
rfoot -14.8933 -2.66064
rtoes 9.93497
lfemur 13.5763 7.85305 -26.2586
ltibia -1.27222e-014
lfoot -7.77241 4.01532
ltoes -0.00397938
3391
root -28.2931 16.7965 -5.72388 4198.12 -87.9066 -2758.32
lowerback -1.71447 -1.00005 -3.72144
upperback 3.58811 -1.20963 -0.470074
thorax 4.73832 -0.745944 1.52563
lowerneck -9.48261 -0.563581 -0.591204
upperneck 3.77789 -1.0112 4.67912
head 2.92058 -0.34897 1.57735
rclavicle 2.53699e-014 3.08116e-015
rhumerus -32.0366 -9.2498 -84.5071
rradius 26.9463
rwrist -3.44887
rhand -21.5268 5.4732
rfingers 7.12502
rthumb 4.86565 -24.4509
lclavicle 2.53699e-014 3.08116e-015
lhumerus -17.4085 -4.07795 93.4826
lradius 30.5127
lwrist 10.3546
lhand -18.9983 16.3873
lfingers 7.12502
lthumb 7.30677 46.2411
rfemur -30.8356 9.80422 13.9452
rtibia 27.0693
rfoot -14.7544 -2.75099
rtoes 10.3275
lfemur 13.8179 7.64306 -26.2517
ltibia 3.18055e-014
lfoot -7.84953 3.9616
ltoes -0.421218
3392
root -28.368 16.7865 -5.7398 4206.44 -87.987 -2766.62
lowerback -1.75332 -1.00752 -3.75553
upperback 3.57533 -1.2157 -0.483834
thorax 4.74804 -0.749693 1.52954
lowerneck -9.47404 -0.619547 -0.630452
upperneck 3.73975 -1.08219 4.71668
head 2.90904 -0.384211 1.59255
rclavicle 1.28465e-014 -3.57812e-015
rhumerus -32.0883 -9.43836 -84.3637
rradius 26.6927
rwrist -3.19812
rhand -21.4865 5.47065
rfingers 7.12502
rthumb 4.9046 -24.4526
lclavicle 1.28465e-014 -3.57812e-015
lhumerus -17.5655 -3.74301 93.5434
lradius 29.9781
lwrist 10.0513
lhand -18.9575 16.3592
lfingers 7.12502
lthumb 7.3462 46.2117
rfemur -30.5911 9.98587 13.8019
rtibia 27.2103
rfoot -14.6323 -2.88974
rtoes 10.6035
lfemur 14.0691 7.42928 -26.2353
ltibia 3.65764e-014
lfoot -7.92643 3.91094
ltoes -0.800237
3393
root -28.4439 16.7752 -5.75669 4215.33 -88.0269 -2775.49
lowerback -1.79468 -1.01608 -3.78711
upperback 3.56459 -1.22321 -0.496821
thorax 4.76137 -0.754174 1.53268
lowerneck -9.47679 -0.676047 -0.663835
upperneck 3.70592 -1.15429 4.74586
head 2.90104 -0.420002 1.60397
rclavicle 2.86001e-014 2.48481e-015
rhumerus -32.1352 -9.63376 -84.2188
rradius 26.4287
rwrist -2.9357
rhand -21.4366 5.44238
rfingers 7.12502
rthumb 4.95278 -24.4797
lclavicle 2.86001e-014 2.48481e-015
lhumerus -17.7329 -3.38109 93.5796
lradius 29.4216
lwrist 9.74625
lhand -18.9395 16.3313
lfingers 7.12502
lthumb 7.36355 46.1832
rfemur -30.3109 10.1649 13.684
rtibia 27.3907
rfoot -14.5589 -3.10664
rtoes 10.5438
lfemur 14.3293 7.21103 -26.2115
ltibia 6.36111e-014
lfoot -7.99958 3.86739
ltoes -1.21477
3394
root -28.5212 16.7634 -5.77448 4224.59 -88.0223 -2784.73
lowerback -1.84376 -1.02681 -3.81654
upperback 3.557 -1.2333 -0.509103
thorax 4.7825 -0.760048 1.53498
lowerneck -9.47448 -0.729338 -0.695202
upperneck 3.65875 -1.22158 4.77175
head 2.88734 -0.453772 1.61404
rclavicle 1.25607e-014 -8.84592e-015
rhumerus -32.1801 -9.84264 -84.0699
rradius 26.1568
rwrist -2.66417
rhand -21.3887 5.4327
rfingers 7.12502
rthumb 4.99904 -24.4883
lclavicle 1.25607e-014 -8.84592e-015
lhumerus -17.9078 -2.99281 93.5912
lradius 28.8399
lwrist 9.43941
lhand -18.9407 16.3222
lfingers 7.12502
lthumb 7.36243 46.1741
rfemur -29.9967 10.3112 13.6013
rtibia 27.5944
rfoot -14.5555 -3.4063
rtoes 10.1968
lfemur 14.598 6.9839 -26.1813
ltibia 4.6118e-014
lfoot -8.06735 3.83166
ltoes -1.6637
3395
root -28.6 16.7524 -5.79298 4233.8 -87.9721 -2793.91
lowerback -1.90308 -1.03886 -3.83994
upperback 3.55164 -1.24486 -0.520558
thorax 4.81175 -0.766596 1.53443
lowerneck -9.46399 -0.781562 -0.722613
upperneck 3.59773 -1.28691 4.79134
head 2.86721 -0.487043 1.62127
rclavicle -2.54569e-014 3.18055e-015
rhumerus -32.2278 -10.0624 -83.9184
rradius 25.8785
rwrist -2.39333
rhand -21.3471 5.41886
rfingers 7.12502
rthumb 5.03924 -24.5012
lclavicle -2.54569e-014 3.18055e-015
lhumerus -18.0933 -2.57812 93.5777
lradius 28.2361
lwrist 9.12837
lhand -18.9565 16.2883
lfingers 7.12502
lthumb 7.34709 46.1407
rfemur -29.6656 10.4088 13.5584
rtibia 27.8041
rfoot -14.6099 -3.78911
rtoes 9.66103
lfemur 14.8729 6.74865 -26.1427
ltibia -4.77083e-014
lfoot -8.12582 3.80381
ltoes -2.16211
3396
root -28.6807 16.7438 -5.81188 4242.51 -87.8783 -2802.61
lowerback -1.97555 -1.0511 -3.85356
upperback 3.55395 -1.25635 -0.531453
thorax 4.85629 -0.773143 1.52861
lowerneck -9.44715 -0.831384 -0.750133
upperneck 3.51883 -1.34841 4.81186
head 2.83973 -0.518759 1.62885
rclavicle -4.74598e-015 4.27387e-015
rhumerus -32.268 -10.2878 -83.7673
rradius 25.586
rwrist -2.13002
rhand -21.3265 5.44037
rfingers 7.12502
rthumb 5.0591 -24.4792
lclavicle -4.74598e-015 4.27387e-015
lhumerus -18.2782 -2.12012 93.5358
lradius 27.6019
lwrist 8.78947
lhand -18.9769 16.2366
lfingers 7.12502
lthumb 7.32749 46.0897
rfemur -29.3322 10.4432 13.5558
rtibia 28.0063
rfoot -14.6613 -4.20413
rtoes 9.23213
lfemur 15.1588 6.50833 -26.0939
ltibia 0
lfoot -8.1728 3.78204
ltoes -2.68874
3397
root -28.7628 16.7387 -5.83069 4250.37 -87.7411 -2810.47
lowerback -2.05767 -1.06222 -3.85785
upperback 3.55741 -1.26617 -0.543238
thorax 4.90719 -0.778599 1.51652
lowerneck -9.41823 -0.880969 -0.771587
upperneck 3.42608 -1.40905 4.82271
head 2.80503 -0.550655 1.63205
rclavicle -9.19379e-016 -7.95139e-016
rhumerus -32.3148 -10.5221 -83.6131
rradius 25.2879
rwrist -1.88
rhand -21.3349 5.50783
rfingers 7.12502
rthumb 5.05101 -24.412
lclavicle -9.19379e-016 -7.95139e-016
lhumerus -18.4689 -1.61445 93.4654
lradius 26.938
lwrist 8.41597
lhand -19.0024 16.1513
lfingers 7.12502
lthumb 7.3028 46.0053
rfemur -29.0258 10.4108 13.5745
rtibia 28.1884
rfoot -14.6713 -4.60358
rtoes 9.05788
lfemur 15.4488 6.26594 -26.0425
ltibia 2.22639e-014
lfoot -8.20567 3.76385
ltoes -3.20204
3398
root -28.8462 16.738 -5.84906 4257.17 -87.5712 -2817.26
lowerback -2.15044 -1.07135 -3.84783
upperback 3.56224 -1.27332 -0.556929
thorax 4.96501 -0.782261 1.49438
lowerneck -9.37789 -0.93042 -0.784437
upperneck 3.31992 -1.46941 4.8247
head 2.76341 -0.582945 1.63066
rclavicle 1.31695e-015 5.96354e-016
rhumerus -32.3627 -10.7577 -83.4622
rradius 24.9897
rwrist -1.63786
rhand -21.3458 5.53009
rfingers 7.12502
rthumb 5.04048 -24.39
lclavicle 1.31695e-015 5.96354e-016
lhumerus -18.6612 -1.05545 93.3616
lradius 26.2424
lwrist 8.00108
lhand -19.0311 16.0572
lfingers 7.12502
lthumb 7.27509 45.9122
rfemur -28.7611 10.3186 13.606
rtibia 28.3452
rfoot -14.5974 -4.95505
rtoes 9.21029
lfemur 15.7406 6.02707 -25.9881
ltibia 3.49861e-014
lfoot -8.2193 3.75078
ltoes -3.70885
3399
root -28.9301 16.7414 -5.86675 4262.95 -87.3872 -2823.02
lowerback -2.24321 -1.0763 -3.81248
upperback 3.56455 -1.27607 -0.569533
thorax 5.01926 -0.782662 1.45953
lowerneck -9.32909 -0.978734 -0.797533
upperneck 3.20701 -1.52792 4.8267
head 2.71793 -0.61454 1.62941
rclavicle 2.16178e-015 6.16232e-015
rhumerus -32.4147 -10.9869 -83.3138
rradius 24.6949
rwrist -1.40388
rhand -21.3719 5.52705
rfingers 7.12502
rthumb 5.01526 -24.3936
lclavicle 2.16178e-015 6.16232e-015
lhumerus -18.8593 -0.432489 93.2248
lradius 25.5189
lwrist 7.53408
lhand -19.0677 15.9877
lfingers 7.12502
lthumb 7.23983 45.8439
rfemur -28.5411 10.1787 13.6505
rtibia 28.4773
rfoot -14.4235 -5.2288
rtoes 9.70715
lfemur 16.0308 5.79858 -25.9227
ltibia 3.18055e-015
lfoot -8.21381 3.74283
ltoes -4.18263
3400
root -29.0138 16.7475 -5.88389 4267.91 -87.2083 -2827.96
lowerback -2.33205 -1.07548 -3.74365
upperback 3.56136 -1.27314 -0.576815
thorax 5.06439 -0.778763 1.41203
lowerneck -9.27684 -1.02635 -0.810208
upperneck 3.09292 -1.58534 4.82622
head 2.67141 -0.645727 1.62737
rclavicle 4.82053e-015 6.85807e-015
rhumerus -32.4694 -11.2125 -83.1642
rradius 24.4072
rwrist -1.16324
rhand -21.3966 5.47168
rfingers 7.12502
rthumb 4.9914 -24.4495
lclavicle 4.82053e-015 6.85807e-015
lhumerus -19.0625 0.27073 93.0533
lradius 24.7688
lwrist 7.00585
lhand -19.1508 15.9351
lfingers 7.12502
lthumb 7.15958 45.794
rfemur -28.3636 9.9947 13.7185
rtibia 28.5962
rfoot -14.1594 -5.4212
rtoes 10.4781
lfemur 16.3127 5.58665 -25.8354
ltibia 5.725e-014
lfoot -8.1834 3.74089
ltoes -4.64616
